<svg width="243" height="73" viewBox="0 0 243 73" fill="none" xmlns="http://www.w3.org/2000/svg">
<g clip-path="url(#clip0_139_4575)">
<path d="M60.911 29.7206L61.2014 31.672L65.968 33.4277C66.0942 36.9202 66.1574 40.7347 66.1574 44.8965V60.2051C66.1574 62.1376 66.1574 63.6723 66.1132 64.8596V71.7371C68.4365 71.7371 70.7282 71.6676 73.0578 71.6676C75.2549 71.6676 77.4772 71.7118 79.6805 71.7308V42.7556V40.4189C79.6805 35.476 79.7752 30.8152 79.9646 26.4365L79.4406 26.0576C73.5503 27.327 68.7395 28.5522 60.911 29.7206Z" fill="white"/>
<path d="M183.2 66.5773C177.754 66.5773 173.562 65.1037 170.624 62.1565C167.686 59.2093 166.213 54.6517 166.205 48.4836C166.205 43.1913 167.366 38.9663 169.69 35.8086C172.013 32.6508 174.989 31.072 178.617 31.072C179.795 31.0321 180.972 31.1944 182.095 31.552L185.77 43.4376L188.396 43.0145C189.259 38.0926 190.263 33.4003 191.407 28.9374C186.999 27.1353 182.281 26.2127 177.518 26.2217C169.942 26.2217 163.713 28.489 158.831 33.0235C153.948 37.5579 151.511 43.4965 151.52 50.8393C151.52 57.5757 153.763 62.948 158.25 66.9562C162.737 70.9644 168.465 72.979 175.435 73.0001C181.19 72.967 186.837 71.4253 191.812 68.5288L191.426 65.6742C188.723 66.2583 185.966 66.5609 183.2 66.5773Z" fill="white"/>
<path d="M71.631 17.3419C73.2362 17.3507 74.8078 16.8825 76.1466 15.9968C77.4855 15.1112 78.5314 13.8478 79.1517 12.3669C79.772 10.8859 79.9389 9.25409 79.6311 7.6782C79.3233 6.1023 78.5548 4.65329 77.4229 3.51479C76.291 2.3763 74.8467 1.59959 73.273 1.2831C71.6993 0.966617 70.0672 1.1246 68.5834 1.73703C67.0996 2.34946 65.8309 3.38877 64.9382 4.72323C64.0455 6.05769 63.5689 7.62723 63.5689 9.23291C63.5648 10.2952 63.7701 11.348 64.1733 12.3308C64.5764 13.3136 65.1694 14.2072 65.9183 14.9605C66.6672 15.7137 67.5573 16.3118 68.5375 16.7204C69.5178 17.1291 70.569 17.3403 71.631 17.3419Z" fill="white"/>
<path d="M243 45.6544C243 39.5958 241.26 34.8487 237.779 31.4131C234.298 27.9775 229.357 26.2555 222.955 26.2471C215.64 26.2471 209.617 28.4912 204.886 32.9793C200.156 37.4675 197.794 43.2608 197.803 50.3594C197.803 57.8074 200.261 63.4428 205.177 67.2658C210.093 71.0887 216.434 72.9981 224.199 72.9939C230.669 73.007 237.05 71.4764 242.811 68.5289L242.432 65.5353C239.159 66.1448 235.836 66.4451 232.507 66.4321C225.352 66.4321 220.203 65.0385 217.059 62.2513C213.902 59.4536 212.361 54.8812 212.361 48.5026H242.861C242.949 47.5237 243 46.5764 243 45.6544ZM228.479 43.8924H212.551C212.699 40.5948 213.658 37.3846 215.341 34.5455C216.949 31.9604 219.104 30.67 221.806 30.6742C222.826 30.6218 223.84 30.8568 224.733 31.3525C225.626 31.8483 226.362 32.5848 226.857 33.4782C227.951 35.3518 228.498 38.4422 228.498 42.7493L228.479 43.8924Z" fill="white"/>
<path d="M49.8185 57.4704V40.7534C49.8185 36.1221 48.5011 32.5434 45.8663 30.0172C43.2316 27.491 39.5846 26.228 34.9253 26.228C29.679 26.228 24.3694 30.794 18.9842 33.9959V14.355C18.9842 9.4163 19.081 4.75762 19.2746 0.378926L18.7506 0C12.835 1.26309 7.95479 2.52617 0 3.65663L0.2841 5.6081L5.24006 7.50273C5.36633 10.9888 5.42946 14.8076 5.42946 18.9589V60.5839C5.42946 62.1501 5.42946 63.7795 5.42946 65.4531V71.699C7.72751 71.6738 10.0424 71.6611 12.3741 71.6611C14.7058 71.6611 16.9281 71.6738 19.041 71.699V61.7017C19.041 59.7439 19.0094 57.6977 19.0094 55.5505V38.6378C21.0108 36.7874 24.5083 32.8402 27.1473 32.8402C30.1735 32.8402 32.4505 33.6823 33.9783 35.3664C35.5062 37.0505 36.268 39.8482 36.2638 43.7596V63.6784C36.2638 64.4552 36.2638 65.0994 36.2638 65.6046V71.7117C38.4924 71.7117 40.8472 71.6675 43.341 71.6675C45.5191 71.6675 47.6719 71.718 49.8374 71.7369V60.2618C49.8185 59.365 49.8185 58.4493 49.8185 57.4704Z" fill="white"/>
<path d="M141.153 57.4703V40.7534C141.153 36.1221 139.834 32.5433 137.195 30.0172C134.556 27.491 130.911 26.2279 126.26 26.2279C121.008 26.2279 115.698 30.9645 110.319 34.5137V26.4868L109.606 26.1079C103.526 27.4405 98.8731 28.6341 91.518 29.7203L91.8084 31.6718L96.5939 33.4338C96.7244 36.9536 96.7897 40.7892 96.7897 44.9405V60.5838C96.7897 62.4532 96.7728 64.4025 96.7392 66.4319C96.7379 66.4487 96.7379 66.4656 96.7392 66.4824V71.699C99.0498 71.6737 101.365 71.6611 103.684 71.6611C105.988 71.6611 108.198 71.6611 110.325 71.699V58.3671C110.325 57.4451 110.325 56.5104 110.325 55.5504V39.5598C111.954 37.5262 115.843 32.8402 118.476 32.8402C121.506 32.8402 123.783 33.6822 125.307 35.3663C126.696 36.901 127.416 39.4019 127.542 42.7617V66.2424V71.7116C129.783 71.7116 132.138 71.6674 134.632 71.6674C136.829 71.6674 138.988 71.7179 141.166 71.7369V63.6784C141.166 61.9985 141.153 59.9523 141.153 57.4703Z" fill="white"/>
</g>
<defs>
<clipPath id="clip0_139_4575">
<rect width="243" height="73" fill="white"/>
</clipPath>
</defs>
</svg>
