<svg width="36" height="36" viewBox="0 0 36 36" fill="none" xmlns="http://www.w3.org/2000/svg">
<g clip-path="url(#clip0_41_458)">
<path d="M29.625 0H6.375C2.85418 0 0 2.85418 0 6.375V28.725C0 32.2458 2.85418 35.1 6.375 35.1H29.625C33.1458 35.1 36 32.2458 36 28.725V6.375C36 2.85418 33.1458 0 29.625 0Z" fill="#00005B"/>
<path d="M14.4622 21H8.88349L7.74846 24.5326C7.73301 24.5969 7.69561 24.6538 7.6427 24.6935C7.58979 24.7332 7.5247 24.7532 7.45864 24.75H4.63311C4.47197 24.75 4.41562 24.6614 4.46406 24.4843L9.29409 10.6314C9.34235 10.4865 9.39069 10.3449 9.43896 10.1596C9.50221 9.8374 9.53455 9.5099 9.53556 9.18156C9.53229 9.15859 9.53441 9.13518 9.54175 9.11318C9.54908 9.09118 9.56144 9.07118 9.57784 9.05478C9.59424 9.03838 9.61423 9.02602 9.63623 9.01867C9.65824 9.01133 9.68165 9.00921 9.70461 9.01248H13.5445C13.6569 9.01248 13.7213 9.05274 13.7377 9.13325L19.2197 24.5085C19.268 24.6696 19.2197 24.7501 19.0749 24.75H15.9353C15.8814 24.756 15.8272 24.7421 15.7827 24.711C15.7383 24.6799 15.7067 24.6336 15.6938 24.5809L14.4622 21ZM9.75295 18.0213H13.5687C13.472 17.6995 13.3593 17.3372 13.2305 16.9346C13.1014 16.5323 12.9646 16.1016 12.82 15.6425C12.6751 15.1837 12.5302 14.7249 12.3853 14.266C12.2404 13.8072 12.1076 13.3644 11.9868 12.9377C11.8661 12.5114 11.7574 12.1209 11.6608 11.7665H11.6366C11.5007 12.4187 11.3314 13.0636 11.1295 13.6985C10.9038 14.423 10.6744 15.1636 10.4412 15.9203C10.2076 16.6772 9.97822 17.3776 9.75295 18.0213Z" fill="#9999FF"/>
<path d="M28.1071 19.6251H23.3495C23.4078 20.0958 23.5641 20.5491 23.8084 20.9557C24.0785 21.3583 24.4604 21.673 24.9072 21.8613C25.5127 22.1233 26.1676 22.2516 26.8272 22.2376C27.3505 22.2275 27.8718 22.1703 28.3848 22.0666C28.8437 22.0046 29.2933 21.8874 29.724 21.7174C29.8044 21.6533 29.8448 21.6933 29.8448 21.8382V24.1325C29.8488 24.195 29.8363 24.2574 29.8086 24.3136C29.7809 24.3575 29.7438 24.3946 29.6999 24.4222C29.2221 24.6339 28.7193 24.7836 28.2037 24.868C27.5031 24.9995 26.7912 25.0602 26.0785 25.0491C24.9351 25.0491 23.9771 24.872 23.2046 24.5178C22.4743 24.1961 21.8293 23.7081 21.321 23.0929C20.8461 22.5132 20.4929 21.8439 20.2825 21.1247C20.074 20.4149 19.9683 19.6789 19.9685 18.9391C19.9663 18.1314 20.0927 17.3284 20.3429 16.5604C20.5838 15.8112 20.9649 15.1146 21.4658 14.5076C21.9599 13.9077 22.5778 13.4217 23.2771 13.0827C23.9854 12.7367 24.8227 12.6126 25.7887 12.6126C26.5898 12.5923 27.3855 12.749 28.1192 13.0714C28.7361 13.3345 29.2791 13.7447 29.701 14.2661C30.0966 14.7767 30.3991 15.353 30.5945 15.9687C30.7848 16.562 30.8825 17.181 30.8843 17.8041C30.8843 18.1584 30.8723 18.4804 30.8481 18.7701C30.824 19.0599 30.8039 19.2692 30.7877 19.398C30.7815 19.4512 30.7559 19.5003 30.7158 19.5359C30.6757 19.5715 30.624 19.5912 30.5703 19.5912C30.4737 19.5912 30.3087 19.6033 30.0753 19.6274C29.8417 19.6515 29.5519 19.6676 29.2059 19.6757C28.8595 19.684 28.4935 19.6251 28.1071 19.6251ZM23.3495 17.4251H26.5132C26.8996 17.4251 27.1854 17.421 27.3705 17.413C27.4944 17.4006 27.614 17.361 27.7207 17.2969V17.152C27.7158 16.9631 27.6833 16.776 27.6241 16.5966C27.4938 16.1846 27.2318 15.8267 26.8784 15.578C26.525 15.3294 26.0998 15.2036 25.668 15.22C25.2615 15.1955 24.8568 15.2897 24.503 15.4912C24.1492 15.6928 23.8617 15.9929 23.6756 16.3551C23.5101 16.6919 23.4 17.0532 23.3495 17.4251Z" fill="#9999FF"/>
</g>
<defs>
<clipPath id="clip0_41_458">
<rect width="36" height="35.1" fill="white"/>
</clipPath>
</defs>
</svg>
