<svg width="21" height="22" viewBox="0 0 21 22" fill="none" xmlns="http://www.w3.org/2000/svg">
<path fill-rule="evenodd" clip-rule="evenodd" d="M7.14016 0.5H13.8601C15.9467 0.5 17.6401 2.19334 17.6401 4.28003C17.6401 5.74232 16.8085 7.01141 15.5928 7.63997C16.8085 8.26856 17.6401 9.53768 17.6401 11C17.6401 13.0867 15.9467 14.78 13.8601 14.78C12.6731 14.78 11.6134 14.2321 10.9202 13.3755V17.72C10.9202 19.8067 9.22685 21.5 7.14016 21.5C5.05347 21.5 3.36011 19.8067 3.36011 17.72C3.36011 16.2577 4.1917 14.9885 5.40748 14.36C4.1917 13.7314 3.36011 12.4623 3.36011 11C3.36011 9.53768 4.19169 8.26856 5.40746 7.63997C4.19169 7.01141 3.36011 5.74232 3.36011 4.28003C3.36011 2.19334 5.05347 0.5 7.14016 0.5ZM4.20011 4.28003C4.20011 2.65727 5.51738 1.34 7.14016 1.34H10.08V7.21995H7.14016L7.13105 7.21996C5.51244 7.21504 4.20011 5.89973 4.20011 4.28003ZM10.0802 10.96C10.0801 10.9733 10.08 10.9866 10.08 11C10.08 11.0133 10.0801 11.0266 10.0802 11.04V13.9399H7.14014C5.51738 13.94 4.20011 12.6227 4.20011 11C4.20011 9.38023 5.51249 8.06484 7.13112 8.05996L7.14016 8.05997H10.08L10.0802 10.96ZM10.9202 11.0352V10.9648C10.9391 9.36221 12.2425 8.06642 13.848 8.05997H13.8601C13.8631 8.05997 13.8661 8.05997 13.8691 8.05996C15.4877 8.06484 16.8001 9.38023 16.8001 11C16.8001 12.6227 15.4828 13.94 13.8601 13.94C12.249 13.94 10.9391 12.6417 10.9202 11.0352ZM11.4847 8.05997C11.2773 8.22777 11.088 8.41705 10.9202 8.62442V8.05997H11.4847ZM13.8692 7.21996C13.8661 7.21995 13.8631 7.21995 13.8601 7.21995C13.8555 7.21995 13.8509 7.21996 13.8463 7.21997H10.9202V1.34H13.8601C15.4828 1.34 16.8001 2.65727 16.8001 4.28003C16.8001 5.89973 15.4878 7.21504 13.8692 7.21996ZM7.14016 14.7799C5.51738 14.7799 4.20011 16.0972 4.20011 17.72C4.20011 19.3427 5.51738 20.66 7.14016 20.66C8.76294 20.66 10.0802 19.3427 10.0802 17.72V14.7799H7.14016Z" fill="black"/>
</svg>
