<svg width="21" height="22" viewBox="0 0 21 22" fill="none" xmlns="http://www.w3.org/2000/svg">
<g clip-path="url(#clip0_99_76)">
<path fill-rule="evenodd" clip-rule="evenodd" d="M10.5002 0.9375C8.00751 0.938793 5.59657 1.82165 3.69846 3.42821C1.80036 5.03476 0.53887 7.26026 0.139556 9.70675C-0.259758 12.1532 0.22914 14.6612 1.51884 16.7822C2.80854 18.9031 4.81494 20.4988 7.17927 21.2838C7.70088 21.3807 7.89735 21.0574 7.89735 20.7825C7.89735 20.5076 7.88692 19.7106 7.88344 18.8393C4.96243 19.4703 4.34519 17.6067 4.34519 17.6067C3.86879 16.3965 3.18026 16.0784 3.18026 16.0784C2.22745 15.4318 3.25155 15.4439 3.25155 15.4439C4.30694 15.5183 4.86159 16.521 4.86159 16.521C5.79701 18.1167 7.31836 17.6551 7.91647 17.3854C8.01036 16.7094 8.28334 16.2496 8.58414 15.9885C6.25081 15.7257 3.79924 14.8302 3.79924 10.8297C3.78478 9.79225 4.17197 8.78892 4.88071 8.02735C4.77291 7.76457 4.413 6.70308 4.98329 5.26125C4.98329 5.26125 5.86482 4.98119 7.87128 6.33139C9.59229 5.86342 11.4081 5.86342 13.1291 6.33139C15.1338 4.98119 16.0136 5.26125 16.0136 5.26125C16.5856 6.69962 16.2257 7.76111 16.1179 8.02735C16.8289 8.78904 17.2169 9.79412 17.2011 10.8332C17.2011 14.8423 14.7443 15.7257 12.4075 15.9833C12.7831 16.3083 13.1187 16.9428 13.1187 17.9179C13.1187 19.3147 13.1065 20.4385 13.1065 20.7825C13.1065 21.0608 13.296 21.3859 13.828 21.2838C16.1927 20.4987 18.1993 18.9027 19.4889 16.7814C20.7786 14.6601 21.2673 12.1518 20.8675 9.70504C20.4677 7.25833 19.2056 5.03281 17.3069 3.42653C15.4081 1.82025 12.9966 0.937974 10.5037 0.9375H10.5002Z" fill="black"/>
<path d="M3.97637 15.928C3.95376 15.9799 3.87031 15.9955 3.8025 15.9592C3.73469 15.9229 3.68427 15.8554 3.70861 15.8018C3.73295 15.7483 3.81467 15.7344 3.88248 15.7707C3.95029 15.807 4.00245 15.8762 3.97637 15.928Z" fill="black"/>
<path d="M4.40233 16.3997C4.36632 16.4178 4.32512 16.4228 4.28579 16.414C4.24646 16.4052 4.21145 16.383 4.18673 16.3513C4.11892 16.2787 4.105 16.1785 4.15716 16.1335C4.20932 16.0886 4.30322 16.1093 4.37103 16.1819C4.43884 16.2545 4.45449 16.3548 4.40233 16.3997Z" fill="black"/>
<path d="M4.81626 16.9998C4.75193 17.0448 4.64238 16.9998 4.58153 16.9099C4.5647 16.8938 4.55132 16.8744 4.54218 16.8531C4.53304 16.8317 4.52832 16.8087 4.52832 16.7854C4.52832 16.7622 4.53304 16.7392 4.54218 16.7178C4.55132 16.6964 4.5647 16.6771 4.58153 16.661C4.64586 16.6177 4.75541 16.661 4.81626 16.7491C4.87711 16.8373 4.87885 16.9549 4.81626 16.9998Z" fill="black"/>
<path d="M5.37791 17.5806C5.32054 17.6446 5.20404 17.6273 5.10842 17.5408C5.01279 17.4544 4.99018 17.3368 5.04756 17.2746C5.10493 17.2124 5.22143 17.2296 5.32053 17.3144C5.41964 17.3991 5.43877 17.5184 5.37791 17.5806Z" fill="black"/>
<path d="M6.1654 17.9196C6.13932 18.0008 6.02109 18.0372 5.90286 18.0026C5.78463 17.968 5.70638 17.8712 5.72899 17.7882C5.75159 17.7052 5.87156 17.6672 5.99153 17.7052C6.1115 17.7433 6.18801 17.8349 6.1654 17.9196Z" fill="black"/>
<path d="M7.02429 17.9783C7.02429 18.0631 6.92693 18.1357 6.80174 18.1374C6.67656 18.1391 6.57397 18.07 6.57397 17.9853C6.57397 17.9005 6.67134 17.8279 6.79652 17.8262C6.92171 17.8245 7.02429 17.8919 7.02429 17.9783Z" fill="black"/>
<path d="M7.8241 17.8454C7.83975 17.9301 7.75281 18.0183 7.62762 18.039C7.50244 18.0598 7.3929 18.0097 7.37725 17.9267C7.3616 17.8437 7.45202 17.7538 7.57372 17.7313C7.69543 17.7088 7.80845 17.7607 7.8241 17.8454Z" fill="black"/>
</g>
<defs>
<clipPath id="clip0_99_76">
<rect width="21" height="21" fill="white" transform="translate(0 0.5)"/>
</clipPath>
</defs>
</svg>
