<svg width="21" height="22" viewBox="0 0 21 22" fill="none" xmlns="http://www.w3.org/2000/svg">
<g clip-path="url(#clip0_99_121)">
<g clip-path="url(#clip1_99_121)">
<path d="M10.5 3.99997L7.70002 6.79998L9.10003 8.19998L11.9 5.39997C13.055 4.24497 14.945 4.24497 16.1 5.39997C17.2551 6.55498 17.2551 8.44498 16.1 9.59999L13.3 12.4L14.7 13.8L17.5001 11C19.4321 9.06798 19.4321 5.93198 17.5001 3.99997C15.568 2.06796 12.432 2.06796 10.5 3.99997ZM11.9 13.8L9.10003 16.6C7.94502 17.755 6.05502 17.755 4.90001 16.6C3.74501 15.445 3.74501 13.555 4.90001 12.4L7.70002 9.59999L6.30002 8.19998L3.50001 11C1.568 12.932 1.568 16.068 3.50001 18C5.43202 19.932 8.56802 19.932 10.5 18L13.3 15.2L11.9 13.8ZM7.00002 13.1L12.6 7.49998L14 8.89998L8.40002 14.5L7.00002 13.1Z" fill="black"/>
</g>
</g>
<defs>
<clipPath id="clip0_99_121">
<rect width="21" height="21" fill="white" transform="translate(0 0.5)"/>
</clipPath>
<clipPath id="clip1_99_121">
<rect width="21" height="21" fill="white" transform="translate(0 0.5)"/>
</clipPath>
</defs>
</svg>
