<svg width="540" height="158" viewBox="0 0 540 158" fill="none" xmlns="http://www.w3.org/2000/svg">
<g clip-path="url(#clip0_99_4380)">
<path d="M78.76 152.52C119.497 152.52 152.52 119.497 152.52 78.76C152.52 38.0235 119.497 5 78.76 5C38.0235 5 5 38.0235 5 78.76C5 119.497 38.0235 152.52 78.76 152.52Z" stroke="black" stroke-width="10" stroke-miterlimit="10"/>
<path d="M78.76 5V152.51" stroke="black" stroke-width="10" stroke-miterlimit="10"/>
<path d="M461.04 152.52C501.777 152.52 534.8 119.497 534.8 78.76C534.8 38.0235 501.777 5 461.04 5C420.304 5 387.28 38.0235 387.28 78.76C387.28 119.497 420.304 152.52 461.04 152.52Z" stroke="black" stroke-width="10" stroke-miterlimit="10"/>
<path d="M534.8 78.76H387.29" stroke="black" stroke-width="10" stroke-miterlimit="10"/>
<path d="M440.44 78.76V152.51" stroke="black" stroke-width="10" stroke-miterlimit="10"/>
<path d="M481.65 78.76V152.51" stroke="black" stroke-width="10" stroke-miterlimit="10"/>
<path d="M269.9 152.52C310.636 152.52 343.66 119.497 343.66 78.76C343.66 38.0235 310.636 5 269.9 5C229.163 5 196.14 38.0235 196.14 78.76C196.14 119.497 229.163 152.52 269.9 152.52Z" stroke="black" stroke-width="10" stroke-miterlimit="10"/>
<path d="M249.29 5V152.51" stroke="black" stroke-width="10" stroke-miterlimit="10"/>
<path d="M290.51 5V152.51" stroke="black" stroke-width="10" stroke-miterlimit="10"/>
<path d="M249.29 58.15H196.14" stroke="black" stroke-width="10" stroke-miterlimit="10"/>
<path d="M249.29 99.36H196.14" stroke="black" stroke-width="10" stroke-miterlimit="10"/>
</g>
<defs>
<clipPath id="clip0_99_4380">
<rect width="539.8" height="157.51" fill="white"/>
</clipPath>
</defs>
</svg>
