<svg width="78" height="24" viewBox="0 0 78 24" fill="none" xmlns="http://www.w3.org/2000/svg">
<path fill-rule="evenodd" clip-rule="evenodd" d="M66.538 22.0203C72.0721 22.0203 76.5584 17.5341 76.5584 12C76.5584 6.46593 72.0721 1.97968 66.538 1.97968C61.004 1.97968 56.5177 6.46593 56.5177 12C56.5177 17.5341 61.004 22.0203 66.538 22.0203ZM66.538 23.4621C72.8684 23.4621 78.0001 18.3304 78.0001 12C78.0001 5.66966 72.8684 0.537903 66.538 0.537903C60.2077 0.537903 55.0759 5.66966 55.0759 12C55.0759 18.3304 60.2077 23.4621 66.538 23.4621Z" fill="#565656"/>
<path fill-rule="evenodd" clip-rule="evenodd" d="M38.9999 22.0203C44.534 22.0203 49.0203 17.5341 49.0203 12C49.0203 6.46593 44.534 1.97968 38.9999 1.97968C33.4659 1.97968 28.9796 6.46593 28.9796 12C28.9796 17.5341 33.4659 22.0203 38.9999 22.0203ZM38.9999 23.4621C45.3303 23.4621 50.4621 18.3304 50.4621 12C50.4621 5.66966 45.3303 0.537903 38.9999 0.537903C32.6696 0.537903 27.5378 5.66966 27.5378 12C27.5378 18.3304 32.6696 23.4621 38.9999 23.4621Z" fill="#565656"/>
<path fill-rule="evenodd" clip-rule="evenodd" d="M11.4621 22.0203C16.9962 22.0203 21.4824 17.5341 21.4824 12C21.4824 6.46593 16.9962 1.97968 11.4621 1.97968C5.92803 1.97968 1.44177 6.46593 1.44177 12C1.44177 17.5341 5.92803 22.0203 11.4621 22.0203ZM11.4621 23.4621C17.7925 23.4621 22.9242 18.3304 22.9242 12C22.9242 5.66966 17.7925 0.537903 11.4621 0.537903C5.13176 0.537903 0 5.66966 0 12C0 18.3304 5.13176 23.4621 11.4621 23.4621Z" fill="#565656"/>
<path fill-rule="evenodd" clip-rule="evenodd" d="M10.525 23.3178L10.525 0.826111L11.9668 0.826111L11.9668 23.3178L10.525 23.3178Z" fill="#565656"/>
<path fill-rule="evenodd" clip-rule="evenodd" d="M35.3234 22.0204L35.3234 2.1239L36.7651 2.1239L36.7651 22.0204L35.3234 22.0204Z" fill="#565656"/>
<path fill-rule="evenodd" clip-rule="evenodd" d="M77.2793 12.793H55.0759V11.3513H77.2793V12.793Z" fill="#565656"/>
<path fill-rule="evenodd" clip-rule="evenodd" d="M28.2587 8.90021H36.1885V10.342L28.2587 10.342V8.90021Z" fill="#565656"/>
<path fill-rule="evenodd" clip-rule="evenodd" d="M63.4381 22.0203L63.4381 12.0721L64.8799 12.0721L64.8799 22.0203L63.4381 22.0203Z" fill="#565656"/>
<path fill-rule="evenodd" clip-rule="evenodd" d="M28.2587 13.8022H36.1885V15.244L28.2587 15.244V13.8022Z" fill="#565656"/>
<path fill-rule="evenodd" clip-rule="evenodd" d="M68.34 22.0203L68.34 12.0721L69.7817 12.0721L69.7817 22.0203L68.34 22.0203Z" fill="#565656"/>
<path fill-rule="evenodd" clip-rule="evenodd" d="M40.8021 22.0204L40.8021 2.1239L42.2439 2.1239L42.2439 22.0204L40.8021 22.0204Z" fill="#565656"/>
</svg>
