<svg width="36" height="36" viewBox="0 0 36 36" fill="none" xmlns="http://www.w3.org/2000/svg">
<g clip-path="url(#clip0_41_468)">
<path d="M6.375 0H29.625C33.15 0 36 2.85 36 6.375V28.725C36 32.25 33.15 35.1 29.625 35.1H6.375C2.85 35.1 0 32.25 0 28.725V6.375C0 2.85 2.85 0 6.375 0Z" fill="#00005B"/>
<path d="M8.55005 24.6151V9.18005C8.55005 9.07505 8.59505 9.01505 8.70005 9.01505C8.95505 9.01505 9.19505 9.01505 9.54005 9.00005C9.90005 8.98505 10.275 8.98505 10.68 8.97005C11.085 8.95505 11.52 8.95505 11.985 8.94005C12.45 8.92505 12.9 8.92505 13.35 8.92505C14.58 8.92505 15.6 9.07505 16.44 9.39005C17.19 9.64505 17.88 10.065 18.45 10.62C18.93 11.1 19.305 11.685 19.545 12.33C19.7701 12.96 19.89 13.605 19.89 14.28C19.89 15.57 19.59 16.635 18.99 17.475C18.39 18.315 17.55 18.945 16.575 19.305C15.555 19.68 14.43 19.8151 13.2 19.8151C12.84 19.8151 12.6 19.815 12.45 19.8C12.3 19.785 12.09 19.785 11.805 19.785V24.6C11.82 24.705 11.745 24.795 11.64 24.81C11.625 24.81 11.61 24.81 11.58 24.81H8.73005C8.61005 24.81 8.55005 24.7501 8.55005 24.6151ZM11.82 11.91V16.95C12.03 16.965 12.225 16.98 12.405 16.98H13.2C13.785 16.98 14.37 16.89 14.925 16.71C15.405 16.575 15.825 16.29 16.155 15.915C16.47 15.54 16.62 15.03 16.62 14.37C16.635 13.905 16.515 13.44 16.275 13.035C16.02 12.645 15.66 12.345 15.225 12.18C14.67 11.955 14.07 11.865 13.455 11.88C13.065 11.88 12.72 11.88 12.435 11.895C12.135 11.88 11.925 11.895 11.82 11.91Z" fill="#9999FF"/>
<path d="M21.99 12.7801H24.615C24.765 12.7801 24.885 12.8851 24.93 13.0201C24.975 13.1401 25.005 13.2601 25.02 13.3951C25.05 13.5451 25.08 13.7101 25.095 13.8601C25.11 14.0251 25.125 14.2051 25.125 14.4001C25.575 13.8751 26.115 13.4401 26.73 13.1101C27.42 12.7201 28.215 12.5251 29.01 12.5251C29.115 12.5101 29.205 12.5851 29.22 12.6901C29.22 12.7051 29.22 12.7201 29.22 12.7501V15.6751C29.22 15.7951 29.145 15.8401 28.98 15.8401C28.44 15.8251 27.885 15.8701 27.36 15.9901C26.925 16.0801 26.505 16.2151 26.1 16.3951C25.815 16.5301 25.545 16.7101 25.335 16.9501V24.6001C25.335 24.7501 25.275 24.8101 25.14 24.8101H22.185C22.065 24.8251 21.96 24.7501 21.945 24.6301C21.945 24.6151 21.945 24.5851 21.945 24.5701V16.2601C21.945 15.9001 21.945 15.5251 21.93 15.1351C21.915 14.7451 21.915 14.3551 21.9 13.9651C21.9 13.6201 21.87 13.2901 21.84 12.9451C21.825 12.8701 21.87 12.7951 21.945 12.7801C21.945 12.7651 21.975 12.7651 21.99 12.7801Z" fill="#9999FF"/>
</g>
<defs>
<clipPath id="clip0_41_468">
<rect width="36" height="35.1" fill="white"/>
</clipPath>
</defs>
</svg>
